<?xml version="1.0" encoding="UTF-8" standalone="no"?>
<!-- Created with Inkscape (http://www.inkscape.org/) -->

<svg
   version="1.1"
   id="svg554"
   width="853.43073"
   height="1817.2501"
   viewBox="0 0 853.43071 1817.2501"
   sodipodi:docname="chemin_2.svg"
   inkscape:version="1.2.2 (732a01da63, 2022-12-09)"
   inkscape:export-filename="media\chemin_1.png"
   inkscape:export-xdpi="96"
   inkscape:export-ydpi="96"
   xmlns:inkscape="http://www.inkscape.org/namespaces/inkscape"
   xmlns:sodipodi="http://sodipodi.sourceforge.net/DTD/sodipodi-0.dtd"
   xmlns="http://www.w3.org/2000/svg"
   xmlns:svg="http://www.w3.org/2000/svg">
  <defs
     id="defs558" />
  <sodipodi:namedview
     id="namedview556"
     pagecolor="#ffffff"
     bordercolor="#000000"
     borderopacity="0.25"
     inkscape:showpageshadow="2"
     inkscape:pageopacity="0.0"
     inkscape:pagecheckerboard="0"
     inkscape:deskcolor="#d1d1d1"
     showgrid="false"
     inkscape:zoom="0.23533398"
     inkscape:cx="299.57425"
     inkscape:cy="1310.9029"
     inkscape:window-width="1920"
     inkscape:window-height="991"
     inkscape:window-x="-9"
     inkscape:window-y="-9"
     inkscape:window-maximized="1"
     inkscape:current-layer="g560" />
  <g
     inkscape:groupmode="layer"
     inkscape:label="Image"
     id="g560"
     transform="translate(-947.58948,739.37476)">
    <path
       style="fill:#0000ff;fill-opacity:1;stroke:#0000ff;stroke-width:15.078;stroke-miterlimit:4.6;stroke-dasharray:none;stroke-opacity:1"
       d="m 1135.8806,1022.2998 -93.2253,-629.65703 c 0,0 -6.774,-47.72416 10.7699,-75.76974 17.5439,-28.04561 433.3536,-574.97869 433.3536,-574.97869 0,0 28.7695,-52.04812 -12.1837,-84.84175 -40.9532,-32.79355 -200.8723,-154.71285 -200.8723,-154.71285 0,0 -20.5292,-22.37007 -1.6445,-42.46375 18.8845,-20.09342 45.697,-5.7488 71.1219,-4.66552 25.4248,1.08327 52.0503,-5.81 94.9489,-40.7364 42.8987,-34.92659 89.6561,-64.58021 89.6561,-64.58021 0,0 18.9197,-16.1115 36.8374,-1.68127 17.9178,14.43007 108.8123,90.55087 108.8123,90.55087 0,0 23.0705,22.34562 -2.074,53.11902 -25.1445,30.77354 -52.7718,68.20845 -52.7718,68.20845 0,0 -12.5314,20.03249 16.9041,43.64445 29.4356,23.61185 78.0361,58.98704 78.0361,58.98704 0,0 17.9411,17.08481 1.6093,38.48139 -16.3315,21.39656 -585.0586,808.74468 -596.3193,828.765 -11.2606,20.02035 -50.4057,48.27344 -43.6669,92.01551"
       id="path726" />
  </g>
</svg>
